<svg width="1333" height="878" viewBox="0 0 1333 878" fill="none" xmlns="http://www.w3.org/2000/svg">
<g filter="url(#filter0_i_11_1658)">
<path d="M1333 788.005V436.805V81.215L1129.64 0H271.715L62 85.605V283.155L131.905 219.5V658.5L62 588.26V614.6V695.815V788.005L271.715 878H487.785L551.335 845.075H805.535L913.57 878H1116.93L1333 788.005Z" fill="#2B2A25"/>
</g>
<path d="M807.025 835.075L808.45 835.51L915.06 868H1114.93L1323 781.337V87.9893L1127.72 10H273.679L72 92.3242V260.524L125.172 212.106L141.905 196.869V682.724L124.817 665.554L72 612.484V781.414L273.77 868H485.349L546.734 836.196L548.898 835.075H807.025Z" stroke="#A6A697" stroke-width="20"/>
<g filter="url(#filter1_i_11_1658)">
<path d="M63.0684 726.545V436.727V153.65L0 224.419V659.146L63.0684 726.545Z" fill="#FFE012"/>
</g>
<path d="M842 92.5L857 99.6603V82.3397L842 89.5V92.5ZM540 91V92.5H843.5V91V89.5H540V91Z" fill="white"/>
<path d="M1082 176L1092 180.774V169.226L1082 174V176ZM937 175V176L1083 176V175V174L937 174V175Z" fill="white"/>
<path d="M1144.5 121C1167.97 121 1187 140.028 1187 163.5C1187 176.726 1180.96 188.54 1171.48 196.335C1167.66 183.926 1157.02 175 1144.5 175C1131.98 175 1121.34 183.926 1117.52 196.335C1108.04 188.54 1102 176.726 1102 163.5C1102 140.028 1121.03 121 1144.5 121ZM1144.5 136C1135.94 136 1129 142.94 1129 151.5C1129 160.06 1135.94 167 1144.5 167C1153.06 167 1160 160.06 1160 151.5C1160 142.94 1153.06 136 1144.5 136Z" fill="#FFE012"/>
<path d="M697.5 75L697.768 421.06L751.071 76.9149L698.302 421.099L804.055 82.6385L698.826 421.175L855.871 92.1082L699.337 421.288L905.953 105.22L699.827 421.437L953.75 121.831L700.291 421.62L998.74 141.758L700.725 421.835L1040.43 164.784L701.124 422.079L1078.36 190.656L701.483 422.351L1112.12 219.09L701.798 422.647L1141.34 249.776L702.066 422.964L1165.69 282.376L702.285 423.299L1184.92 316.534L702.45 423.647L1198.8 351.875L702.562 424.004L1207.19 388.013L702.618 424.368L1210 424.551L702.618 424.734L1207.19 461.089L702.562 425.098L1198.8 497.227L702.45 425.456L1184.92 532.568L702.285 425.804L1165.69 566.727L702.066 426.138L1141.34 599.327L701.798 426.455L1112.12 630.012L701.483 426.751L1078.36 658.447L701.124 427.023L1040.43 684.318L700.725 427.268L998.74 707.344L700.291 427.483L953.75 727.271L699.827 427.666L905.953 743.882L699.337 427.815L855.871 756.994L698.826 427.928L804.055 766.464L698.302 428.004L751.071 772.188L697.768 428.042L697.5 774.102L697.232 428.042L643.929 772.188L696.698 428.004L590.945 766.464L696.174 427.928L539.129 756.994L695.663 427.815L489.047 743.882L695.173 427.666L441.25 727.271L694.709 427.483L396.26 707.344L694.275 427.268L354.571 684.318L693.876 427.023L316.638 658.447L693.517 426.751L282.879 630.012L693.202 426.455L253.662 599.327L692.934 426.138L229.308 566.727L692.715 425.804L210.084 532.568L692.55 425.456L196.199 497.227L692.438 425.098L187.808 461.089L692.382 424.734L185 424.551L692.382 424.368L187.808 388.013L692.438 424.004L196.199 351.875L692.55 423.647L210.084 316.534L692.715 423.299L229.308 282.376L692.934 422.964L253.662 249.776L693.202 422.647L282.879 219.09L693.517 422.351L316.638 190.656L693.876 422.079L354.571 164.784L694.275 421.835L396.26 141.758L694.709 421.62L441.25 121.831L695.173 421.437L489.047 105.22L695.663 421.288L539.129 92.1082L696.174 421.175L590.945 82.6385L696.698 421.099L643.929 76.9149L697.232 421.06L697.5 75Z" fill="#FFE012"/>
<defs>
<filter id="filter0_i_11_1658" x="62" y="0" width="1274" height="881" filterUnits="userSpaceOnUse" color-interpolation-filters="sRGB">
<feFlood flood-opacity="0" result="BackgroundImageFix"/>
<feBlend mode="normal" in="SourceGraphic" in2="BackgroundImageFix" result="shape"/>
<feColorMatrix in="SourceAlpha" type="matrix" values="0 0 0 0 0 0 0 0 0 0 0 0 0 0 0 0 0 0 127 0" result="hardAlpha"/>
<feOffset dx="10" dy="10"/>
<feGaussianBlur stdDeviation="1.5"/>
<feComposite in2="hardAlpha" operator="arithmetic" k2="-1" k3="1"/>
<feColorMatrix type="matrix" values="0 0 0 0 0 0 0 0 0 0 0 0 0 0 0 0 0 0 0.25 0"/>
<feBlend mode="normal" in2="shape" result="effect1_innerShadow_11_1658"/>
</filter>
<filter id="filter1_i_11_1658" x="0" y="153.65" width="65.0684" height="574.895" filterUnits="userSpaceOnUse" color-interpolation-filters="sRGB">
<feFlood flood-opacity="0" result="BackgroundImageFix"/>
<feBlend mode="normal" in="SourceGraphic" in2="BackgroundImageFix" result="shape"/>
<feColorMatrix in="SourceAlpha" type="matrix" values="0 0 0 0 0 0 0 0 0 0 0 0 0 0 0 0 0 0 127 0" result="hardAlpha"/>
<feOffset dx="4" dy="4"/>
<feGaussianBlur stdDeviation="1"/>
<feComposite in2="hardAlpha" operator="arithmetic" k2="-1" k3="1"/>
<feColorMatrix type="matrix" values="0 0 0 0 0 0 0 0 0 0 0 0 0 0 0 0 0 0 0.25 0"/>
<feBlend mode="normal" in2="shape" result="effect1_innerShadow_11_1658"/>
</filter>
</defs>
</svg>
