<svg width="47" height="42" viewBox="0 0 47 42" fill="none" xmlns="http://www.w3.org/2000/svg">
<path fill-rule="evenodd" clip-rule="evenodd" d="M23.3184 0C36.1971 0 46.6377 10.4406 46.6377 23.3193C46.6376 30.5764 43.3216 37.0582 38.123 41.335C36.0239 34.5264 30.1889 29.6289 23.3184 29.6289C16.4475 29.6291 10.6114 34.5268 8.5127 41.3359C3.31448 37.0592 0.000102818 30.5762 0 23.3193C0 10.4407 10.4398 0.000182302 23.3184 0ZM23.3184 8.23047C18.6217 8.23065 14.8147 12.0377 14.8145 16.7344C14.8145 21.4312 18.6216 25.2391 23.3184 25.2393C28.0153 25.2393 31.8232 21.4313 31.8232 16.7344C31.823 12.0376 28.0152 8.23047 23.3184 8.23047Z" fill="#2B2A25"/>
</svg>
