<svg width="378" height="144" viewBox="0 0 378 144" fill="none" xmlns="http://www.w3.org/2000/svg">
<path d="M378 26.3125L261.312 143H3C1.34315 143 2.11398e-08 141.657 0 140V26H378V26.3125Z" fill="#A6A697"/>
<g filter="url(#filter0_dd_314_1953)">
<path d="M48.1654 132L62.5 143H33L48.1654 132Z" fill="#2B2A25"/>
<path d="M195.665 132L210 143H180.5L195.665 132Z" fill="#2B2A25"/>
<rect x="195.671" y="143" width="147.5" height="11" transform="rotate(180 195.671 143)" fill="#2B2A25"/>
</g>
<g filter="url(#filter1_d_314_1953)">
<rect x="234" y="26.0001" width="64" height="35" fill="#2B2A25"/>
<path d="M214.15 28.0661C213.026 26.0768 214.45 23.6108 216.735 23.59L252.933 23.26C255.255 23.2388 256.72 25.7493 255.559 27.7599L237.174 59.6038C236.013 61.6143 233.106 61.6011 231.964 59.58L214.15 28.0661Z" fill="#2B2A25"/>
<path d="M277.15 28.0661C276.026 26.0768 277.45 23.6108 279.735 23.59L315.933 23.26C318.255 23.2388 319.72 25.7493 318.559 27.7599L300.174 59.6038C299.013 61.6143 296.106 61.6011 294.964 59.58L277.15 28.0661Z" fill="#2B2A25"/>
</g>
<rect x="18" y="41" width="152" height="28" fill="#B8B8AA"/>
<path d="M170 41L179.093 53H160.907L170 41Z" fill="#B8B8AA"/>
<path d="M170 69L160.907 57H179.093L170 69Z" fill="#B8B8AA"/>
<rect x="170" y="53" width="9" height="4" fill="#B8B8AA"/>
<defs>
<filter id="filter0_dd_314_1953" x="29" y="131" width="184" height="13" filterUnits="userSpaceOnUse" color-interpolation-filters="sRGB">
<feFlood flood-opacity="0" result="BackgroundImageFix"/>
<feColorMatrix in="SourceAlpha" type="matrix" values="0 0 0 0 0 0 0 0 0 0 0 0 0 0 0 0 0 0 127 0" result="hardAlpha"/>
<feOffset dx="2"/>
<feGaussianBlur stdDeviation="0.5"/>
<feComposite in2="hardAlpha" operator="out"/>
<feColorMatrix type="matrix" values="0 0 0 0 0 0 0 0 0 0 0 0 0 0 0 0 0 0 0.25 0"/>
<feBlend mode="normal" in2="BackgroundImageFix" result="effect1_dropShadow_314_1953"/>
<feColorMatrix in="SourceAlpha" type="matrix" values="0 0 0 0 0 0 0 0 0 0 0 0 0 0 0 0 0 0 127 0" result="hardAlpha"/>
<feOffset dx="-3"/>
<feGaussianBlur stdDeviation="0.5"/>
<feComposite in2="hardAlpha" operator="out"/>
<feColorMatrix type="matrix" values="0 0 0 0 0 0 0 0 0 0 0 0 0 0 0 0 0 0 0.25 0"/>
<feBlend mode="normal" in2="effect1_dropShadow_314_1953" result="effect2_dropShadow_314_1953"/>
<feBlend mode="normal" in="SourceGraphic" in2="effect2_dropShadow_314_1953" result="shape"/>
</filter>
<filter id="filter1_d_314_1953" x="211.758" y="23.2598" width="109.207" height="43.8439" filterUnits="userSpaceOnUse" color-interpolation-filters="sRGB">
<feFlood flood-opacity="0" result="BackgroundImageFix"/>
<feColorMatrix in="SourceAlpha" type="matrix" values="0 0 0 0 0 0 0 0 0 0 0 0 0 0 0 0 0 0 127 0" result="hardAlpha"/>
<feOffset dy="4"/>
<feGaussianBlur stdDeviation="1"/>
<feComposite in2="hardAlpha" operator="out"/>
<feColorMatrix type="matrix" values="0 0 0 0 0 0 0 0 0 0 0 0 0 0 0 0 0 0 0.25 0"/>
<feBlend mode="normal" in2="BackgroundImageFix" result="effect1_dropShadow_314_1953"/>
<feBlend mode="normal" in="SourceGraphic" in2="effect1_dropShadow_314_1953" result="shape"/>
</filter>
</defs>
</svg>
