<svg width="31" height="46" viewBox="0 0 31 46" fill="none" xmlns="http://www.w3.org/2000/svg">
<rect width="26.8108" height="25.8049" transform="matrix(-1 0 0 1 28.9054 10.0975)" fill="#FFE012"/>
<path d="M15.5 0L2.07661 10.0976H28.9234L15.5 0Z" fill="#FFE012"/>
<rect width="13.4054" height="10.0976" transform="matrix(-1 0 0 1 28.9054 0)" fill="#FFE012"/>
<path d="M15.5 46L2.07661 35.9024H28.9234L15.5 46Z" fill="#FFE012"/>
<rect x="28.9054" y="46" width="13.4054" height="10.0976" transform="rotate(180 28.9054 46)" fill="#FFE012"/>
<path d="M17.5375 28.8767C18.2061 29.2582 19.037 28.7728 19.0331 28.0031L18.9849 18.4769C18.981 17.7071 18.1452 17.2302 17.4805 17.6185L9.25473 22.4234C8.59003 22.8116 8.5949 23.7739 9.26351 24.1554L17.5375 28.8767Z" fill="#2B2A25"/>
</svg>
