<svg width="213" height="189" viewBox="0 0 213 189" fill="none" xmlns="http://www.w3.org/2000/svg">
<path d="M106.471 0C165.272 0.000197531 212.94 47.6689 212.94 106.471C212.94 139.605 197.803 169.203 174.068 188.73C164.485 157.642 137.84 135.28 106.47 135.28C75.099 135.28 48.4533 157.642 38.8701 188.73C15.1358 169.203 2.28322e-05 139.605 0 106.471C0 47.6687 47.6687 0 106.471 0ZM106.471 37.5781C85.0254 37.5781 67.6398 54.9629 67.6396 76.4082C67.6396 97.8536 85.0253 115.238 106.471 115.238C127.916 115.238 145.301 97.8535 145.301 76.4082C145.301 54.9629 127.916 37.5782 106.471 37.5781Z" fill="#FFE012"/>
</svg>
