<svg width="430" height="45" viewBox="0 0 430 45" fill="none" xmlns="http://www.w3.org/2000/svg">
<g filter="url(#filter0_i_106_4373)">
<path d="M12.958 7.998H7.36117e-06V0.868002H34.348V7.998H21.39V44.268H12.958V7.998ZM32.8067 37.82V19.84L39.1927 13.392H56.9247L63.3107 19.84V37.82L56.9247 44.268H39.1927L32.8067 37.82ZM52.9567 37.448L55.1267 35.278V22.382L52.9567 20.212H43.1607L40.9907 22.382V35.278L43.1607 37.448H52.9567ZM67.0327 13.392H75.3407L78.8747 32.86H79.1227L84.7027 13.392H92.1427L97.2887 32.86H97.5367L101.443 13.392H109.751L101.753 44.268H94.1267L88.4227 23.436H88.1747L82.0987 44.268H74.4727L67.0327 13.392ZM113.455 37.944V19.84L119.841 13.392H137.263L143.711 19.84V31.558H121.639V35.526L123.623 37.572H133.729L135.589 35.65V34.038H143.649V38.068L137.511 44.268H119.717L113.455 37.944ZM135.527 25.854V22.258L133.419 20.088H123.747L121.639 22.258V25.854H135.527ZM150.222 13.392H157.786V18.538L162.746 13.392H171.55V20.336H164.42L158.406 26.536V44.268H150.222V13.392ZM191.863 37.82V19.84L198.249 13.392H215.981L222.367 19.84V37.82L215.981 44.268H198.249L191.863 37.82ZM212.013 37.448L214.183 35.278V22.382L212.013 20.212H202.217L200.047 22.382V35.278L202.217 37.448H212.013ZM231.965 20.274H226.385V13.392H231.965V7.25401L238.227 0.992005H249.635V7.75H241.761L240.025 9.486V13.392H249.635V20.274H240.149V44.268H231.965V20.274ZM271.202 0.868002H298.42L304.62 7.068V19.22L302.14 21.762L306.542 26.226V37.572L299.846 44.268H271.202V0.868002ZM294.08 19.034L296.312 16.802V10.106L294.142 7.936H279.448V19.034H294.08ZM295.568 37.2L298.234 34.534V28.458L295.568 25.792H279.448V37.2H295.568ZM311.497 38.564V31.496L317.201 25.792H332.887V21.886L330.965 19.964H321.665L319.805 21.886V23.622H311.745V20.088L318.379 13.392H334.313L340.947 20.088V44.268H333.569V39.866L328.981 44.268H317.201L311.497 38.564ZM328.423 37.944L332.887 33.666V31.62H321.231L319.557 33.294V36.394L321.107 37.944H328.423ZM348.089 37.572V2.5034e-06H356.273V17.67L360.799 13.392H372.083L378.469 19.84V37.82L372.083 44.268H354.723L348.089 37.572ZM367.929 37.324L370.285 34.906V22.754L367.929 20.336H361.853L356.273 25.916V34.906L358.629 37.324H367.929ZM384.645 37.944V19.84L391.031 13.392H408.453L414.901 19.84V31.558H392.829V35.526L394.813 37.572H404.919L406.779 35.65V34.038H414.839V38.068L408.701 44.268H390.907L384.645 37.944ZM406.717 25.854V22.258L404.609 20.088H394.937L392.829 22.258V25.854H406.717ZM421.721 2.5034e-06H429.905V44.268H421.721V2.5034e-06Z" fill="white"/>
</g>
<defs>
<filter id="filter0_i_106_4373" x="0" y="0" width="431.905" height="47.268" filterUnits="userSpaceOnUse" color-interpolation-filters="sRGB">
<feFlood flood-opacity="0" result="BackgroundImageFix"/>
<feBlend mode="normal" in="SourceGraphic" in2="BackgroundImageFix" result="shape"/>
<feColorMatrix in="SourceAlpha" type="matrix" values="0 0 0 0 0 0 0 0 0 0 0 0 0 0 0 0 0 0 127 0" result="hardAlpha"/>
<feOffset dx="2" dy="3"/>
<feGaussianBlur stdDeviation="1.5"/>
<feComposite in2="hardAlpha" operator="arithmetic" k2="-1" k3="1"/>
<feColorMatrix type="matrix" values="0 0 0 0 0 0 0 0 0 0 0 0 0 0 0 0 0 0 0.5 0"/>
<feBlend mode="normal" in2="shape" result="effect1_innerShadow_106_4373"/>
</filter>
</defs>
</svg>
